<svg xmlns="http://www.w3.org/2000/svg" viewBox="0 0 181.2 209.2" width="181.2" height="209.2">
  <defs>
    <linearGradient id="bg" x1="0%" y1="0%" x2="100%" y2="100%">
      <stop offset="0%" style="stop-color:#1a1a2e"/>
      <stop offset="100%" style="stop-color:#16213e"/>
    </linearGradient>
    <clipPath id="hex-clip">
      <polygon points="90.6,1 180.2,53.3 180.2,155.9 90.6,208.2 1,155.9 1,53.3"/>
    </clipPath>
  </defs>

  <!-- Hex background -->
  <polygon
    points="90.6,1 180.2,53.3 180.2,155.9 90.6,208.2 1,155.9 1,53.3"
    fill="url(#bg)"
  />

  <!-- Background mini hexagons (45, non-overlapping, tight text exclusion) -->
  <g clip-path="url(#hex-clip)">
    <polygon points="7.5,92.4 12.3,95.1 12.3,100.7 7.5,103.4 2.7,100.7 2.7,95.1" fill="#2a9d8f" opacity="0.23"/>
    <polygon points="20.1,130.4 23.1,132.1 23.1,135.7 20.1,137.4 17.1,135.7 17.1,132.1" fill="#e9c46a" opacity="0.25"/>
    <polygon points="40.1,33.0 45.3,36.0 45.3,42.0 40.1,45.0 34.9,42.0 34.9,36.0" fill="#f4a261" opacity="0.35"/>
    <polygon points="157.3,50.4 162.1,53.1 162.1,58.7 157.3,61.4 152.5,58.7 152.5,53.1" fill="#f4a261" opacity="0.27"/>
    <polygon points="26.5,120.9 30.0,122.9 30.0,126.9 26.5,128.9 23.0,126.9 23.0,122.9" fill="#e9c46a" opacity="0.3"/>
    <polygon points="14.8,48.6 18.3,50.6 18.3,54.6 14.8,56.6 11.3,54.6 11.3,50.6" fill="#f4a261" opacity="0.35"/>
    <polygon points="75.5,23.8 80.3,26.5 80.3,32.1 75.5,34.8 70.7,32.1 70.7,26.5" fill="#2a9d8f" opacity="0.27"/>
    <polygon points="86.4,189.4 90.7,191.9 90.7,196.9 86.4,199.4 82.1,196.9 82.1,191.9" fill="#2a9d8f" opacity="0.35"/>
    <polygon points="20.5,109.2 23.1,110.7 23.1,113.7 20.5,115.2 17.9,113.7 17.9,110.7" fill="#e76f51" opacity="0.32"/>
    <polygon points="18.9,71.6 22.8,73.9 22.8,78.3 18.9,80.6 15.0,78.3 15.0,73.9" fill="#e76f51" opacity="0.35"/>
    <polygon points="161.7,143.0 166.0,145.5 166.0,150.5 161.7,153.0 157.4,150.5 157.4,145.5" fill="#f4a261" opacity="0.24"/>
    <polygon points="169.8,104.4 173.3,106.4 173.3,110.4 169.8,112.4 166.3,110.4 166.3,106.4" fill="#264653" opacity="0.24"/>
    <polygon points="142.1,149.7 145.6,151.7 145.6,155.7 142.1,157.7 138.6,155.7 138.6,151.7" fill="#e76f51" opacity="0.23"/>
    <polygon points="22.8,60.6 27.1,63.1 27.1,68.1 22.8,70.6 18.5,68.1 18.5,63.1" fill="#f4a261" opacity="0.25"/>
    <polygon points="167.9,78.1 173.1,81.1 173.1,87.1 167.9,90.1 162.7,87.1 162.7,81.1" fill="#e76f51" opacity="0.36"/>
    <polygon points="110.3,26.3 115.1,29.0 115.1,34.6 110.3,37.3 105.5,34.6 105.5,29.0" fill="#e76f51" opacity="0.29"/>
    <polygon points="8.0,130.6 12.8,133.3 12.8,138.9 8.0,141.6 3.2,138.9 3.2,133.3" fill="#e76f51" opacity="0.29"/>
    <polygon points="55.3,29.4 58.8,31.4 58.8,35.4 55.3,37.4 51.8,35.4 51.8,31.4" fill="#f4a261" opacity="0.22"/>
    <polygon points="171.4,57.5 176.2,60.2 176.2,65.8 171.4,68.5 166.6,65.8 166.6,60.2" fill="#f4a261" opacity="0.26"/>
    <polygon points="155.6,154.8 158.2,156.3 158.2,159.3 155.6,160.8 153.0,159.3 153.0,156.3" fill="#2a9d8f" opacity="0.29"/>
    <polygon points="144.4,121.8 148.3,124.1 148.3,128.5 144.4,130.8 140.5,128.5 140.5,124.1" fill="#f4a261" opacity="0.23"/>
    <polygon points="149.4,91.1 153.3,93.4 153.3,97.8 149.4,100.1 145.5,97.8 145.5,93.4" fill="#e9c46a" opacity="0.31"/>
    <polygon points="169.0,124.6 172.0,126.3 172.0,129.9 169.0,131.6 166.0,129.9 166.0,126.3" fill="#e76f51" opacity="0.25"/>
    <polygon points="123.2,23.2 126.2,24.9 126.2,28.5 123.2,30.2 120.2,28.5 120.2,24.9" fill="#f4a261" opacity="0.32"/>
    <polygon points="145.4,35.9 149.3,38.2 149.3,42.6 145.4,44.9 141.5,42.6 141.5,38.2" fill="#e9c46a" opacity="0.31"/>
    <polygon points="96.0,15.8 100.8,18.5 100.8,24.1 96.0,26.8 91.2,24.1 91.2,18.5" fill="#e9c46a" opacity="0.25"/>
    <polygon points="52.3,38.6 55.3,40.3 55.3,43.9 52.3,45.6 49.3,43.9 49.3,40.3" fill="#e9c46a" opacity="0.3"/>
    <polygon points="136.7,47.2 140.6,49.5 140.6,53.9 136.7,56.2 132.8,53.9 132.8,49.5" fill="#e9c46a" opacity="0.23"/>
    <polygon points="158.9,116.7 164.1,119.7 164.1,125.7 158.9,128.7 153.7,125.7 153.7,119.7" fill="#264653" opacity="0.37"/>
    <polygon points="12.4,63.4 15.4,65.1 15.4,68.7 12.4,70.4 9.4,68.7 9.4,65.1" fill="#264653" opacity="0.32"/>
    <polygon points="22.7,157.9 26.2,159.9 26.2,163.9 22.7,165.9 19.2,163.9 19.2,159.9" fill="#e9c46a" opacity="0.24"/>
    <polygon points="151.0,74.8 156.2,77.8 156.2,83.8 151.0,86.8 145.8,83.8 145.8,77.8" fill="#f4a261" opacity="0.34"/>
    <polygon points="38.1,52.2 42.4,54.7 42.4,59.7 38.1,62.2 33.8,59.7 33.8,54.7" fill="#e76f51" opacity="0.26"/>
    <polygon points="72.8,16.0 75.4,17.5 75.4,20.5 72.8,22.0 70.2,20.5 70.2,17.5" fill="#2a9d8f" opacity="0.3"/>
    <polygon points="35.7,130.3 40.9,133.3 40.9,139.3 35.7,142.3 30.5,139.3 30.5,133.3" fill="#e9c46a" opacity="0.29"/>
    <polygon points="26.1,41.8 30.9,44.5 30.9,50.1 26.1,52.8 21.3,50.1 21.3,44.5" fill="#e9c46a" opacity="0.23"/>
    <polygon points="162.7,97.2 166.2,99.2 166.2,103.2 162.7,105.2 159.2,103.2 159.2,99.2" fill="#f4a261" opacity="0.22"/>
    <polygon points="147.2,61.3 150.2,63.0 150.2,66.6 147.2,68.3 144.2,66.6 144.2,63.0" fill="#2a9d8f" opacity="0.27"/>
    <polygon points="37.0,157.8 41.8,160.5 41.8,166.1 37.0,168.8 32.2,166.1 32.2,160.5" fill="#e76f51" opacity="0.24"/>
    <polygon points="150.3,104.6 155.5,107.6 155.5,113.6 150.3,116.6 145.1,113.6 145.1,107.6" fill="#264653" opacity="0.28"/>
    <polygon points="141.0,161.2 144.0,162.9 144.0,166.5 141.0,168.2 138.0,166.5 138.0,162.9" fill="#e76f51" opacity="0.26"/>
    <polygon points="26.6,98.2 29.6,99.9 29.6,103.5 26.6,105.2 23.6,103.5 23.6,99.9" fill="#2a9d8f" opacity="0.25"/>
    <polygon points="11.4,114.0 15.7,116.5 15.7,121.5 11.4,124.0 7.1,121.5 7.1,116.5" fill="#264653" opacity="0.25"/>
    <polygon points="21.8,145.0 26.1,147.5 26.1,152.5 21.8,155.0 17.5,152.5 17.5,147.5" fill="#e9c46a" opacity="0.37"/>
    <polygon points="151.5,137.5 154.1,139.0 154.1,142.0 151.5,143.5 148.9,142.0 148.9,139.0" fill="#e76f51" opacity="0.38"/>
  </g>

  <!-- Swirl motif: five concentric arcs -->
  <g transform="translate(90.6, 88)" fill="none" stroke-linecap="round">
    <!-- Outermost swirl -->
    <path d="M-10,-48 C-48,-38 -52,8 -34,32 C-16,56 26,56 44,34
             C62,12 50,-30 22,-42"
      stroke="#264653" stroke-width="4.5" opacity="0.85"/>
    <!-- Outer swirl -->
    <path d="M-8,-38 C-38,-30 -42,5 -28,25 C-14,45 20,45 34,28
             C48,11 40,-22 18,-32"
      stroke="#e76f51" stroke-width="4.5" opacity="0.9"/>
    <!-- Middle swirl -->
    <path d="M-5,-28 C-28,-22 -32,2 -22,18 C-12,34 16,36 28,22
             C40,8 32,-18 14,-26"
      stroke="#f4a261" stroke-width="4.5" opacity="0.9"/>
    <!-- Inner swirl -->
    <path d="M-3,-19 C-19,-14 -22,1 -15,11 C-8,21 10,24 19,15
             C28,6 22,-12 10,-18"
      stroke="#e9c46a" stroke-width="4.5" opacity="0.9"/>
    <!-- Innermost swirl -->
    <path d="M0,-11 C-11,-8 -14,0 -9,7 C-4,14 7,15 12,9
             C17,3 14,-6 5,-10"
      stroke="#2a9d8f" stroke-width="4.5" opacity="0.9"/>
    <!-- Center dot -->
    <circle cx="1" cy="-1" r="3.5" fill="#e9c46a"/>
  </g>

  <!-- "swirl-" / "tidy" text -->
  <text x="90.6" y="155" text-anchor="middle"
    font-family="Lato, 'Helvetica Neue', Arial, sans-serif"
    font-size="26" font-weight="bold" fill="#e9c46a"
    letter-spacing="2">swirl-</text>
  <text x="90.6" y="180" text-anchor="middle"
    font-family="Lato, 'Helvetica Neue', Arial, sans-serif"
    font-size="26" font-weight="bold" fill="#2a9d8f"
    letter-spacing="2">tidy</text>

  <!-- Hex border (on top) -->
  <polygon
    points="90.6,1 180.2,53.3 180.2,155.9 90.6,208.2 1,155.9 1,53.3"
    fill="none"
    stroke="#2a9d8f"
    stroke-width="3"
  />
</svg>